<?xml version="1.0" encoding="utf-8"?>
<!-- Generator: Adobe Illustrator 26.0.3, SVG Export Plug-In . SVG Version: 6.00 Build 0)  -->
<svg version="1.1" id="Layer_1" xmlns="http://www.w3.org/2000/svg" xmlns:xlink="http://www.w3.org/1999/xlink" x="0px" y="0px"
	 viewBox="0 0 215 70" style="enable-background:new 0 0 215 70;" xml:space="preserve">
<style type="text/css">
	.st0{fill:#807F7F;}
	.st1{fill:#0F0D0E;}
	.st2{fill:#71296B;}
	.st3{fill:#A4B93E;}
</style>
<polygon class="st0" points="71.9,7.7 71.9,35.1 71.9,62.4 74.6,62.4 74.6,35.1 74.6,7.7 "/>
<g>
	<path class="st1" d="M93.3,14.7c2.2,0,3.9,1.8,3.9,3.9s-1.8,3.9-3.9,3.9s-3.9-1.8-3.9-3.9S91.2,14.7,93.3,14.7z M90,47V25.3h6.7V47
		H90z"/>
	<path class="st1" d="M122.3,40.8c-1.1,3.8-4.5,6.9-10,6.9c-6,0-11.3-4.3-11.3-11.6c0-7,5.2-11.5,10.9-11.5
		c6.7,0,10.9,4.2,10.9,11.2c0,0.9-0.1,1.9-0.1,2.1h-15.1c0.1,2.5,2.4,4.2,4.9,4.2c2.4,0,3.8-1.1,4.4-2.8L122.3,40.8z M116.2,33.6
		c-0.1-1.7-1.2-3.7-4.4-3.7c-2.8,0-4.2,2.1-4.3,3.7H116.2z"/>
	<path class="st0" d="M126.9,55.4V25.3h6.4v2.2c0.9-1.4,3.3-2.8,6.4-2.8c6.3,0,10.1,4.8,10.1,11.3c0,6.7-4.3,11.4-10.4,11.4
		c-2.8,0-4.9-1-5.9-2.2v10h-6.6V55.4z M138.4,30.8c-2.6,0-4.9,1.8-4.9,5.4c0,3.6,2.3,5.4,4.9,5.4c2.6,0,4.9-1.8,4.9-5.4
		C143.4,32.5,141,30.8,138.4,30.8z"/>
	<path class="st0" d="M159.3,34.5l5.1-0.8c1.2-0.2,1.6-0.7,1.6-1.5c0-1.3-1.1-2.4-3.2-2.4c-2.3,0-3.6,1.6-3.7,3.2l-5.8-1.2
		c0.3-3.1,3.2-7.2,9.5-7.2c7,0,9.6,3.9,9.6,8.4v10.6c0,1.7,0.2,3.2,0.3,3.4h-6c0-0.2-0.2-1-0.2-2.5c-1.1,1.8-3.2,3.1-6.1,3.1
		c-4.8,0-7.5-3.2-7.5-6.6C152.9,37.2,155.7,35,159.3,34.5z M166,38.5v-1l-4.1,0.7c-1.4,0.2-2.5,0.9-2.5,2.4c0,1.1,0.7,2.2,2.6,2.2
		C164,42.8,166,41.9,166,38.5z"/>
	<path class="st0" d="M178.1,47V25.3h6.3v2.5c1.1-1.9,3.9-3.2,6.3-3.2c3.1,0,5.3,1.3,6.4,3.4c1.7-2.5,3.8-3.4,6.7-3.4
		c4.1,0,8.1,2.4,8.1,8.3V47h-6.4V34.4c0-2.1-1.1-3.7-3.5-3.7s-3.6,1.8-3.6,3.7V47h-6.6V34.4c0-2.1-1.1-3.7-3.5-3.7
		c-2.3,0-3.6,1.8-3.6,3.8V47H178.1z"/>
</g>
<g id="Layer_1_1_">
</g>
<path class="st2" d="M29.6,17.1c0.1-2.7-0.2-6.1,0.3-9.4c0.2-1.5,0.6-3,1.2-4.5c0.6-1.5,1.5-2.6,3.2-2.7c1.8-0.1,3.2,0.6,4.1,2.2
	c0.9,1.6,1.2,3.3,1.5,5.1c0.5,3.9,0.4,7.7,0.4,11.6c0,2.4,0.2,4.8,0.6,7.2c0.1,0.7,0.3,1.4,1.2,1.6c0.9,0.2,1.3-0.4,1.7-1
	c1.4-2.2,2.1-4.6,2.9-7c0.9-2.6,1.9-5.2,3.3-7.6c0.2-0.4,0.4-0.7,0.7-1c0.9-1.1,2.2-1.4,3.5-1.2c1.2,0.2,1.6,1.2,1.9,2.2
	c0.4,1,0.4,2.1,0.3,3.2c-0.8,9.7-3.7,18.7-8.9,27c-3.3,5.3-7.6,7.2-13.7,5.8c-2.4-0.6-4.9-1.2-7.4-0.9c-1.8,0.2-3.4,0.6-5,1.5
	c-0.6,0.4-1.1,0.8-1.5,1.4c-0.2,0.3-0.4,0.6-0.2,0.9c0.2,0.3,0.6,0.1,0.9,0c1.1-0.2,2.2-0.5,3.3-0.5c2.7-0.1,5.2,2.5,5.6,5.7
	c0.4,3.7-2.2,6.6-6.3,7c-3.2,0.3-6-0.8-8.3-3c-4.1-3.7-7.2-8.2-9.5-13.1C3.1,43,1.8,38,1.2,32.9c-0.1-0.9,0-1.7,0.1-2.6
	c0.1-1,0.7-1.9,1.8-2.2c1.1-0.3,2,0.1,2.7,1c0.5,0.6,0.9,1.2,1.2,1.9c1.1,2.1,2.2,4.2,3.4,6.2c0.5,0.8,1,1.5,1.6,2.1
	c0.8,0.8,1.9,1,2.9,0.6c1.1-0.5,1.2-1.4,1.1-2.4c-0.4-3.3-1.2-6.6-2.1-9.8c-0.9-3.2-1.8-6.5-2.4-9.8c-0.3-1.6-0.2-3.2,0.1-4.8
	c0.5-2.5,3.3-3.6,5.3-2c0.8,0.6,1.3,1.4,1.9,2.2c1.6,2.5,2.5,5.2,3.5,8c1,3.1,1.9,6.2,3.6,9c0.4,0.7,0.7,1.6,1.8,1.5
	c1-0.2,1.2-1.1,1.5-1.9c0.5-1.7,0.6-3.5,0.6-5.3C29.6,22.4,29.6,20.1,29.6,17.1z M40.4,44.1c2.9,0,5.2-2.3,5.2-5.2
	c0-2.9-2.3-5.2-5.2-5.2c-2.9,0-5.2,2.4-5.2,5.2C35.2,41.8,37.5,44.1,40.4,44.1z"/>
<path class="st3" d="M31.2,69c-0.7,0-1.6-0.1-2.6-0.1c-0.4,0-0.9-0.2-0.9-0.7c0-0.4,0.5-0.4,0.8-0.6c0.9-0.3,1.9-0.6,2.8-0.9
	c8.4-2.3,14.3-7.7,18.5-15c1.7-3,3-6.1,3.9-9.5c0.1-0.5,0.3-1,0.4-1.5c0.2-0.5,0.4-1.2,1-1c0.6,0.2,0.3,0.8,0.3,1.2
	c-0.2,3.9-0.8,7.8-2.2,11.5C51.3,58.2,48,63,42.7,66.1C39.3,68.2,35.5,68.9,31.2,69z"/>
</svg>
